<svg xmlns:xlink="http://www.w3.org/1999/xlink" xmlns="http://www.w3.org/2000/svg" data-encore-id="icon" role="img" aria-hidden="true" class="e-91000-icon e-91000-baseline xBQRDMmxlfN1Il74AAyS" data-testid="album" viewBox="0 0 24 24" width="46"  height="46" ><path d="M12 3a9 9 0 1 0 0 18 9 9 0 0 0 0-18M1 12C1 5.925 5.925 1 12 1s11 4.925 11 11-4.925 11-11 11S1 18.075 1 12" fill="#B3B3B3"></path><path d="M12 10a2 2 0 1 0 0 4 2 2 0 0 0 0-4m-4 2a4 4 0 1 1 8 0 4 4 0 0 1-8 0" fill="#B3B3B3"></path></svg>