<svg xmlns:xlink="http://www.w3.org/1999/xlink" xmlns="http://www.w3.org/2000/svg" data-encore-id="icon" role="img" aria-hidden="true" class="e-91000-icon e-91000-baseline" viewBox="0 0 24 24" width="24"  height="24" ><path d="M12.438 1.009C6.368.769 1.251 5.494 1.008 11.565c-.24 6.07 4.485 11.186 10.556 11.426 6.07.242 11.185-4.484 11.427-10.554S18.507 1.251 12.438 1.009m4.644 16.114a.657.657 0 0 1-.897.246 13.2 13.2 0 0 0-4.71-1.602 13.2 13.2 0 0 0-4.968.242.658.658 0 0 1-.31-1.278 14.5 14.5 0 0 1 5.46-.265c1.837.257 3.579.851 5.177 1.76.315.178.425.58.246.896zm1.445-2.887a.853.853 0 0 1-1.158.344 16.2 16.2 0 0 0-5.475-1.797 16.2 16.2 0 0 0-5.758.219.855.855 0 0 1-1.018-.65.85.85 0 0 1 .65-1.018 17.9 17.9 0 0 1 6.362-.241 17.9 17.9 0 0 1 6.049 1.985c.415.224.57.743.344 1.158zm1.602-3.255a1.05 1.05 0 0 1-1.418.448 19.7 19.7 0 0 0-6.341-2.025 19.6 19.6 0 0 0-6.655.199 1.05 1.05 0 1 1-.417-2.06 21.7 21.7 0 0 1 7.364-.22 21.7 21.7 0 0 1 7.019 2.24c.515.268.715.903.448 1.418" fill="#B3B3B3"></path></svg>